<?xml version="1.0" encoding="utf-8"?>
<!-- Generator: Adobe Illustrator 19.2.1, SVG Export Plug-In . SVG Version: 6.00 Build 0)  -->
<svg version="1.1" id="layer" xmlns="http://www.w3.org/2000/svg" xmlns:xlink="http://www.w3.org/1999/xlink" x="0px" y="0px"
	 viewBox="0 0 652 652" style="enable-background:new 0 0 652 652;" xml:space="preserve">
<style type="text/css">
	.st0{fill:#0D2240;}
</style>
<path class="st0" d="M46.4,344.9c-0.3,0.2-2,1.2-4.5,1.2h-0.3v-0.6h0.3c1.3,0,2.4-0.3,3.2-0.6c0.7-0.3,1.2-0.6,1.4-0.7l0.2,0.1
	c0,0,0.4,0.3,1.2,0.6c0.8,0.3,1.9,0.6,3.2,0.6c1.4,0,2.8-0.4,4-1l0.2-0.1c0.2-0.1,0.3,0.2,0.3-0.1l0.2,0.1c0,0,0.4,0.3,1.1,0.6
	c0.8,0.3,1.9,0.6,3.3,0.6c1.3,0,2.4-0.3,3.2-0.6c0.7-0.3,1.2-0.6,1.4-0.6l0.2,0.1c0,0,0.4,0.3,1.1,0.6c0.8,0.3,1.9,0.6,3.3,0.6
	c1.4,0,2.8-0.3,4-1l0.2-0.1c0.2-0.1,0.3,0.2,0.3-0.1l0.2,0.1c0,0,0.4,0.3,1.2,0.6c0.8,0.3,1.9,0.6,3.2,0.6c1.3,0,2.4-0.3,3.2-0.6
	c0.8-0.3,1.2-0.6,1.4-0.7l0.2,0.1c0,0,0.4,0.3,1.1,0.6c0.8,0.3,1.9,0.6,3.3,0.6c1.4,0,2.8-0.4,4-1l0.2-0.1c0.2-0.1,0.3,0.2,0.3-0.1
	l0.2,0.1c0,0,0.4,0.3,1.1,0.6c0.8,0.3,1.9,0.6,3.3,0.6c1.3,0,2.4-0.3,3.2-0.6c0.7-0.3,1.2-0.6,1.4-0.6l0.2,0.1c0,0,0.4,0.3,1.1,0.6
	c0.8,0.3,1.9,0.6,3.2,0.6h0.3v0.6h-0.3c-2.5,0-4.1-0.9-4.6-1.2c-0.3,0.2-2,1.2-4.5,1.2c-2.5,0-4.1-0.9-4.6-1.2L92,345
	c-1.3,0.8-2.9,1.1-4.4,1.1c-2.5,0-4.1-0.9-4.6-1.2c-0.3,0.2-2.1,1.3-4.5,1.3c-2.5,0-4.1-0.9-4.6-1.2l-0.2,0.1
	c-1.3,0.7-2.9,1.1-4.4,1.1c-2.5,0-4.1-0.9-4.6-1.2c-0.3,0.2-2,1.2-4.5,1.2c-2.5,0-4.1-0.9-4.6-1.2l-0.2,0.1
	c-1.3,0.8-2.9,1.1-4.4,1.1C48.5,346.2,46.9,345.2,46.4,344.9"/>
<path class="st0" d="M50.4,349.1l-0.2,0.1c-1.4,0.8-2.9,1.1-4.5,1.2l0-0.6c1.5,0,2.9-0.3,4.2-1.1l0.2-0.1c0.2-0.1,0.3,0.2,0.3-0.1
	l0.2,0.1c0,0,0.4,0.3,1.2,0.6c0.8,0.3,1.9,0.6,3.3,0.6c1.3,0,2.5-0.3,3.2-0.6c0.8-0.3,1.2-0.6,1.4-0.7l0.2,0.1c0,0,0.4,0.3,1.2,0.6
	c0.8,0.3,1.9,0.6,3.3,0.6c1.4,0,2.9-0.4,4.1-1.1l0.2-0.1c0.2-0.1,0.3,0.2,0.3-0.1l0.2,0.1c0,0,0.4,0.3,1.2,0.6
	c0.8,0.3,1.9,0.6,3.3,0.6c1.4,0,2.5-0.3,3.2-0.6c0.8-0.3,1.2-0.6,1.4-0.7l0.2,0.1c0,0,0.4,0.3,1.2,0.6c0.8,0.3,1.9,0.6,3.3,0.6
	c1.4,0,2.9-0.4,4.1-1.1l0.2-0.1c0.2-0.1,0.3,0.2,0.3-0.1l0.2,0.1c0,0,0.4,0.3,1.2,0.6c0.8,0.3,1.9,0.6,3.3,0.6
	c1.3,0,2.5-0.3,3.2-0.6c0.8-0.3,1.2-0.6,1.4-0.7l0.2,0.1c0,0,0.4,0.3,1.2,0.6c0.8,0.3,1.9,0.6,3.3,0.6h0.3v0.6h-0.3
	c-2.5,0-4.2-1-4.7-1.3c-0.3,0.2-2.1,1.2-4.6,1.2c-2.5,0-4.2-0.9-4.7-1.3l-0.2,0.1c-1.3,0.8-2.9,1.1-4.4,1.1c-2.5,0-4.2-0.9-4.7-1.3
	c-0.3,0.2-2.1,1.3-4.6,1.3c-2.5,0-4.2-0.9-4.7-1.3l-0.2,0.1c-1.3,0.8-2.9,1.1-4.4,1.1c-2.5,0-4.2-1-4.7-1.3
	c-0.3,0.2-2.1,1.2-4.6,1.2C52.6,350.4,50.9,349.5,50.4,349.1"/>
<path class="st0" d="M64.6,353.3l-0.2,0.1c-1.4,0.8-3,1.2-4.5,1.2c-1.8,0-3.8-0.4-5.4-1.2l0.3-0.6c1.5,0.8,3.3,1.1,5.1,1.1
	c1.4,0,3-0.4,4.2-1.1l0.2-0.1c0.2-0.1,0.3,0.2,0.3-0.1l0.2,0.1c0,0,0.4,0.3,1.2,0.6c0.8,0.3,1.9,0.6,3.4,0.6c1.4,0,2.5-0.3,3.3-0.6
	c0.8-0.3,1.2-0.6,1.5-0.7l0.2,0.1c0,0,0.4,0.3,1.2,0.6c0.8,0.3,1.9,0.6,3.4,0.6c1.4,0,3-0.4,4.2-1.1l0.2-0.1
	c0.2-0.1,0.3,0.2,0.3-0.1l0.2,0.1c0,0,0.4,0.3,1.2,0.6c0.8,0.3,1.9,0.6,3.4,0.6c1.7,0,3.5-0.4,4.9-1.3l0.3,0.5
	c-1.6,0.9-3.5,1.4-5.3,1.4c-2.6,0-4.3-1-4.8-1.3l-0.2,0.1c-1.4,0.8-3,1.2-4.5,1.2c-2.6,0-4.3-1-4.8-1.3c-0.3,0.2-2.1,1.3-4.7,1.3
	C66.8,354.6,65.1,353.7,64.6,353.3"/>
<polygon class="st0" points="67.3,313.9 80.4,313.9 82.8,338.3 64.8,338.3 "/>
<polygon class="st0" points="66.3,311.2 67.3,312.7 80.4,312.7 81.4,311.2 "/>
<polygon class="st0" points="69.3,308.3 68.5,310 79.2,310 78.4,308.3 "/>
<rect x="69.3" y="298.7" class="st0" width="9" height="8.4"/>
<polygon class="st0" points="68.5,296.3 69.3,297.5 78.4,297.5 79.2,296.3 "/>
<rect x="71.8" y="291.5" class="st0" width="4.1" height="3.6"/>
<polygon class="st0" points="73.9,286.6 71,290.2 76.7,290.2 "/>
<polygon class="st0" points="92.7,334.6 93.5,336 99.7,336 100.5,334.6 "/>
<polygon class="st0" points="47.2,334.6 48,336 54.2,336 55,334.6 "/>
<g>
	<path class="st0" d="M60.2,345.9c2.7,0,4.5-1.3,4.5-1.3l0,0h0c0,0,1.7,1.3,4.6,1.3c2.7,0,4.5-1.3,4.5-1.3h0h0c0,0,1.7,1.3,4.6,1.3
		c2.8,0,4.5-1.3,4.5-1.3l0,0h0c0,0,1.7,1.3,4.6,1.3c1.6,0,2.8-0.4,3.6-0.8l0.7-5.6H55.8l0.7,5.6C57.3,345.4,58.6,345.9,60.2,345.9"
		/>
	<path class="st0" d="M96.8,345.9c1.6,0,2.9-0.4,3.7-0.8l-0.7-7.8h-6.1l-0.7,7.7C93.6,345.3,94.9,345.9,96.8,345.9"/>
	<path class="st0" d="M51,345.9c1.7,0,3.1-0.5,3.8-0.9l-0.7-7.7H48l-0.7,7.8C48,345.4,49.3,345.9,51,345.9"/>
	<path class="st0" d="M64.7,294l-10.9-7.3l0.4-0.5c3.7,2.5,7.4,5,11.2,7.5l-0.4,0.5L64.7,294z"/>
	<path class="st0" d="M93.9,286.9l-10.9,7.3l-0.4-0.5c3.7-2.5,7.5-5,11.2-7.5l0.3,0.5L93.9,286.9z"/>
	<path class="st0" d="M64.8,299.1l-28,3.6l-0.1-0.6c9.4-1.2,18.9-2.5,28.3-3.7l0.1,0.6L64.8,299.1z"/>
	<path class="st0" d="M110.6,302.6l-28-3.6l0.1-0.6c9.4,1.2,18.9,2.4,28.3,3.7l-0.1,0.6L110.6,302.6z"/>
	<path class="st0" d="M65,303.8L34,328.6l-0.4-0.5c10.4-8.3,20.8-16.6,31.2-25l0.4,0.5L65,303.8z"/>
	<path class="st0" d="M113.6,328.4l-30.9-24.8l0.4-0.5c10.4,8.3,20.8,16.6,31.2,25l-0.4,0.5L113.6,328.4z"/>
	<path class="st0" d="M26.8,318c0-23.2,20.6-41.2,47.1-41.2c26.4,0,46.8,18,46.8,41.2c0,23.2-20.4,41.3-46.8,41.3
		C47.4,359.3,26.8,341.2,26.8,318 M29.7,318c0,21.2,19,38.5,44.2,38.5c25.2,0,44-17.2,44-38.5c0-21.3-18.7-38.3-44-38.3
		C48.6,279.7,29.7,296.7,29.7,318"/>
	<path class="st0" d="M609.8,330h0.6c0.7,0,1.3-0.2,1.3-0.9c0-0.4-0.3-0.9-1.3-0.9c-0.3,0-0.4,0-0.6,0V330z M609.8,332.9h-0.8v-5.2
		c0.4-0.1,0.8-0.1,1.5-0.1c0.8,0,1.3,0.2,1.6,0.4c0.3,0.2,0.5,0.6,0.5,1.1c0,0.7-0.4,1.1-1,1.3v0c0.4,0.1,0.8,0.5,0.9,1.3
		c0.1,0.8,0.2,1.1,0.3,1.3h-0.9c-0.1-0.2-0.2-0.6-0.3-1.3c-0.1-0.7-0.5-0.9-1.1-0.9h-0.6V332.9z M610.6,326.3c-2,0-3.7,1.7-3.7,3.9
		c0,2.2,1.7,3.9,3.7,3.9c2.1,0,3.7-1.7,3.7-3.9C614.4,328.1,612.7,326.3,610.6,326.3L610.6,326.3z M610.7,325.6
		c2.5,0,4.5,2.1,4.5,4.6c0,2.6-2,4.7-4.6,4.7c-2.5,0-4.6-2-4.6-4.7C606,327.6,608.1,325.6,610.7,325.6L610.7,325.6z M589.8,320.3
		c0.2,0,0.2-0.1,0.2-0.3l-4.1-11.7c-0.2-0.6-0.4-0.6-0.6,0l-3.8,11.7c-0.1,0.2,0,0.3,0.1,0.3H589.8z M585.3,302.9
		c0.5-1.4,0.7-1.7,0.9-1.7c0.3,0,0.4,0.2,1,1.6c0.7,1.6,7.4,19.5,10.1,26.1c1.6,3.9,2.8,4.5,3.7,4.8c0.6,0.2,1.3,0.3,1.7,0.3
		c0.3,0,0.4,0,0.4,0.3c0,0.3-0.4,0.4-0.9,0.4c-0.6,0-3.8,0-6.8-0.1c-0.8,0-1.3,0-1.3-0.3c0-0.2,0.1-0.3,0.3-0.3
		c0.3-0.1,0.5-0.5,0.3-1.2l-4-10.6c-0.1-0.2-0.2-0.3-0.4-0.3H581c-0.2,0-0.3,0.1-0.4,0.3l-2.6,7.7c-0.4,1.1-0.6,2.1-0.6,2.9
		c0,0.9,0.9,1.3,1.6,1.3h0.4c0.3,0,0.4,0.1,0.4,0.3c0,0.3-0.3,0.4-0.6,0.4c-1,0-2.9-0.1-3.4-0.1c-0.5,0-2.9,0.1-4.9,0.1
		c-0.6,0-0.8-0.1-0.8-0.4c0-0.2,0.2-0.3,0.4-0.3c0.3,0,0.9-0.1,1.2-0.1c2-0.3,2.9-1.9,3.6-4.1L585.3,302.9z M546.3,322v-7.6
		c0-6.7,0-8,0.1-9.3c0.1-1.5,0.4-2.2,1.6-2.5c0.5-0.1,0.8-0.1,1.1-0.1c0.2,0,0.3-0.1,0.3-0.3c0-0.3-0.2-0.3-0.7-0.3
		c-1.3,0-4,0.1-4.2,0.1c-0.2,0-2.9-0.1-4.4-0.1c-0.5,0-0.7,0.1-0.7,0.3c0,0.2,0.2,0.3,0.4,0.3c0.3,0,0.9,0,1.3,0.2
		c1,0.2,1.4,1,1.5,2.4c0.1,1.4,0.1,2.6,0.1,9.3v7.6c0,4.1,0,7.6-0.2,9.4c-0.2,1.2-0.4,2.2-1.3,2.4c-0.4,0.1-0.9,0.2-1.3,0.2
		c-0.3,0-0.3,0.1-0.3,0.3c0,0.3,0.2,0.4,0.7,0.4c1.3,0,4-0.1,4.2-0.1c0.2,0,2.9,0.1,5.3,0.1c0.5,0,0.7-0.1,0.7-0.4
		c0-0.1-0.1-0.3-0.3-0.3c-0.4,0-1.3-0.1-2-0.2c-1.3-0.2-1.6-1.1-1.7-2.4C546.3,329.6,546.3,326.2,546.3,322 M496.2,318.2
		c0,0.2,0.1,0.4,0.3,0.5c0.6,0.4,2.6,0.7,4.5,0.7c1,0,2.3-0.1,3.3-0.8c1.5-1,2.6-3.4,2.6-6.7c0-5.4-2.9-8.7-7.5-8.7
		c-1.3,0-2.5,0.1-2.9,0.3c-0.2,0.1-0.3,0.3-0.3,0.5V318.2z M492.7,314.4c0-6.7,0-8-0.1-9.3c-0.1-1.5-0.4-2.2-1.9-2.5
		c-0.3-0.1-1.1-0.1-1.5-0.1c-0.2,0-0.3-0.1-0.3-0.3c0-0.3,0.2-0.3,0.7-0.3c2,0,4.7,0.1,4.9,0.1c0.5,0,3.8-0.1,5.1-0.1
		c2.7,0,5.6,0.3,7.9,1.9c1.1,0.8,3,2.9,3,5.9c0,3.2-1.3,6.4-5.2,10c3.5,4.5,6.5,8.4,9,11.1c2.3,2.5,4.2,2.9,5.3,3.1
		c0.8,0.1,1.4,0.1,1.7,0.1c0.2,0,0.4,0.1,0.4,0.3c0,0.3-0.3,0.4-1,0.4h-3.1c-2.4,0-3.5-0.2-4.6-0.8c-1.9-1-3.4-3.1-5.8-6.4
		c-1.8-2.4-3.9-5.3-4.7-6.4c-0.2-0.2-0.3-0.3-0.6-0.3l-5.3-0.1c-0.2,0-0.3,0.1-0.3,0.4v1c0,4.1,0,7.6,0.2,9.4
		c0.1,1.2,0.4,2.2,1.7,2.4c0.6,0.1,1.6,0.2,1.9,0.2c0.3,0,0.4,0.1,0.4,0.3c0,0.2-0.2,0.4-0.7,0.4c-2.4,0-5.1-0.1-5.3-0.1
		c0,0-2.8,0.1-4.1,0.1c-0.5,0-0.7-0.1-0.7-0.4c0-0.1,0.1-0.3,0.4-0.3c0.4,0,0.9-0.1,1.3-0.2c0.9-0.2,1.1-1.1,1.3-2.4
		c0.2-1.8,0.2-5.2,0.2-9.4V314.4z M439.7,319.1c0,4.6,0,8.6,0.1,9.4c0,1.1,0.1,2.8,0.5,3.3c0.6,0.8,2.3,1.7,7.4,1.7
		c4,0,7.7-1.5,10.3-4c2.3-2.2,3.5-6.4,3.5-10.3c0-5.5-2.4-9-4.2-10.9c-4.1-4.3-9-4.9-14.2-4.9c-0.9,0-2.5,0.1-2.8,0.3
		c-0.4,0.2-0.5,0.4-0.5,0.9c0,1.5,0,5.9,0,9.2V319.1z M436.1,314.4c0-6.7,0-8-0.1-9.3c-0.1-1.5-0.4-2.2-1.9-2.5
		c-0.3-0.1-1.1-0.1-1.5-0.1c-0.2,0-0.3-0.1-0.3-0.3c0-0.3,0.2-0.3,0.7-0.3c1.9,0,4.7,0.1,4.9,0.1c0.5,0,3.2-0.1,5.8-0.1
		c4.3,0,12.2-0.4,17.4,4.9c2.2,2.2,4.2,5.8,4.2,11c0,5.4-2.3,9.7-4.7,12.2c-1.9,1.9-5.8,5-13.1,5c-3.7,0-9.2-0.5-9.6-0.5
		c-0.2,0-2.9,0.1-4.2,0.1c-0.5,0-0.7-0.1-0.7-0.4c0-0.1,0.1-0.3,0.3-0.3c0.4,0,0.9-0.1,1.3-0.2c0.9-0.2,1.1-1.1,1.3-2.4
		c0.2-1.8,0.2-5.2,0.2-9.4V314.4z M379,328.7l-0.6-20.7c1.4,1.6,6.3,7,11.3,12.4c4.6,4.9,10.8,11.3,11.3,11.7
		c2.3,2.3,2.8,2.8,3.2,2.8c0.3,0,0.4-0.2,0.4-3.1l0.1-25.4c0-2.6,0.2-3.5,1.6-3.8c0.5-0.1,0.8-0.1,1-0.1c0.3,0,0.5-0.1,0.5-0.3
		c0-0.3-0.3-0.3-0.8-0.3c-1.8,0-3.2,0.1-3.7,0.1c-0.5,0-2.6-0.1-4.5-0.1c-0.5,0-0.9,0-0.9,0.3c0,0.2,0,0.3,0.3,0.3
		c0.3,0,1.3,0,2.1,0.2c1.3,0.3,1.6,1.3,1.7,4.1l0.5,22c-1.4-1.4-6.1-6.7-10.4-11.3c-6.7-7.1-13.1-14.1-13.8-14.8
		c-0.4-0.4-1.2-1.4-1.5-1.4c-0.3,0-0.5,0.5-0.5,2.2l0,24.8c0,3.9-0.2,5.2-1.3,5.5c-0.6,0.2-1.4,0.3-1.8,0.3c-0.2,0-0.3,0.1-0.3,0.3
		c0,0.3,0.3,0.4,0.7,0.4c2,0,3.8-0.1,4.2-0.1c0.4,0,2.1,0.1,4.6,0.1c0.5,0,0.8-0.1,0.8-0.4c0-0.2-0.1-0.3-0.4-0.3
		c-0.4,0-1.3-0.1-2.2-0.3C379.5,333.4,379,332.3,379,328.7 M340.9,320.3c0.2,0,0.2-0.1,0.2-0.3l-4.1-11.7c-0.2-0.6-0.4-0.6-0.6,0
		l-3.8,11.7c-0.1,0.2,0,0.3,0.1,0.3H340.9z M336.4,302.9c0.5-1.4,0.7-1.7,1-1.7c0.3,0,0.4,0.2,1,1.6c0.6,1.6,7.4,19.5,10.1,26.1
		c1.6,3.9,2.8,4.5,3.7,4.8c0.6,0.2,1.3,0.3,1.7,0.3c0.3,0,0.4,0,0.4,0.3c0,0.3-0.4,0.4-0.9,0.4c-0.6,0-3.8,0-6.8-0.1
		c-0.8,0-1.3,0-1.3-0.3c0-0.2,0.1-0.3,0.3-0.3c0.3-0.1,0.5-0.5,0.3-1.2l-4-10.6c-0.1-0.2-0.2-0.3-0.4-0.3h-9.3
		c-0.2,0-0.4,0.1-0.4,0.3l-2.6,7.7c-0.4,1.1-0.6,2.1-0.6,2.9c0,0.9,0.9,1.3,1.6,1.3h0.4c0.3,0,0.4,0.1,0.4,0.3
		c0,0.3-0.3,0.4-0.7,0.4c-1,0-2.9-0.1-3.4-0.1c-0.5,0-2.9,0.1-4.9,0.1c-0.6,0-0.8-0.1-0.8-0.4c0-0.2,0.2-0.3,0.4-0.3
		c0.3,0,0.9-0.1,1.3-0.1c2-0.3,2.9-1.9,3.6-4.1L336.4,302.9z M289.2,317.9l-7.8,12.4c-1.4,2.2-2.3,3.2-3.6,3.5
		c-0.7,0.2-1.3,0.2-1.6,0.2c-0.2,0-0.3,0.1-0.3,0.3c0,0.2,0.1,0.3,0.4,0.3c1.4,0,3.6-0.1,3.9-0.1c0.4,0,3.1,0.1,4.2,0.1
		c0.3,0,0.5-0.1,0.5-0.3c0-0.2-0.1-0.3-0.3-0.3c-0.2,0-0.6-0.1-0.8-0.1c-0.4-0.1-0.7-0.4-0.7-0.8c0-0.4,0.2-1.2,0.6-1.9l6.8-11.5
		c2.6,4.4,5.1,8.7,7.5,12.9c0.4,0.7,0,1.1-0.2,1.2c-0.2,0.1-0.3,0.2-0.3,0.4c0,0.2,0.2,0.2,1.3,0.3c2.2,0.1,4.3,0.1,6.9,0.1
		c0.4,0,0.6-0.1,0.6-0.4c0-0.2-0.1-0.3-0.3-0.3c-0.3,0-0.9-0.1-1.5-0.3c-1.3-0.4-1.9-1-2.6-1.9c-0.9-1.2-8.3-13.8-9.1-15.1l7-10.5
		c1.3-1.9,2.1-3.1,3.3-3.5c0.5-0.2,1.1-0.2,1.4-0.2s0.5-0.1,0.5-0.3c0-0.2-0.2-0.3-0.7-0.3c-1.5,0-3.2,0.1-3.6,0.1
		c-0.4,0-2.2-0.1-3.9-0.1c-0.5,0-0.7,0.1-0.7,0.3c0,0.2,0.1,0.3,0.4,0.3c0.3,0,0.9,0,1.3,0.1c0.4,0.1,0.7,0.5,0.7,0.8
		c0,0.5-0.1,0.9-0.4,1.6c-0.4,0.9-5.1,8.3-6.4,10.2c-2.3-3.7-4-6.9-5.8-10.4c-0.3-0.5-0.4-1-0.4-1.4c0-0.3,0.1-0.6,0.5-0.7
		c0.4-0.1,0.9-0.1,1.2-0.1c0.3,0,0.4-0.1,0.4-0.3c0-0.2-0.1-0.3-0.7-0.3c-1.5,0-3.7,0.1-4.1,0.1c-0.3,0-3.9-0.1-5.1-0.1
		c-0.6,0-0.7,0.1-0.7,0.3c0,0.2,0.1,0.3,0.4,0.3c0.3,0,1.1,0.1,1.8,0.3c1.5,0.5,2.4,1.8,3.4,3.5L289.2,317.9z M238.4,314.4v7.6
		c0,4.1,0,7.6-0.2,9.4c-0.2,1.2-0.4,2.2-1.3,2.4c-0.4,0.1-0.9,0.2-1.3,0.2c-0.3,0-0.3,0.1-0.3,0.3c0,0.3,0.2,0.4,0.7,0.4
		c1.3,0,4-0.1,4.2-0.1c1.3,0,4.2,0.3,10.7,0.3c1.7,0,2,0,2.3-1.1c0.2-0.9,0.6-3.9,0.6-4.2c0-0.3,0-0.6-0.3-0.6
		c-0.2,0-0.3,0.2-0.4,0.6c-0.3,1.8-0.8,2.6-1.9,3.1c-1.1,0.5-3,0.5-4.2,0.5c-4.2,0-4.9-0.6-5-3.6c0-0.9,0-5.9,0-7.4v-3.8
		c0-0.2,0.1-0.3,0.3-0.3c0.7,0,5,0.1,6.2,0.2c1.7,0.2,2.1,0.9,2.3,1.5c0.2,0.6,0.2,1,0.2,1.4c0,0.2,0.1,0.4,0.3,0.4
		c0.3,0,0.3-0.5,0.3-0.8c0-0.3,0.1-1.9,0.2-2.8c0.1-1.4,0.3-2.2,0.3-2.4c0-0.3-0.1-0.3-0.2-0.3c-0.2,0-0.3,0.2-0.6,0.6
		c-0.4,0.4-1,0.5-2,0.6c-1,0.1-6.3,0.1-6.9,0.1c-0.2,0-0.3-0.1-0.3-0.4v-12c0-0.3,0.1-0.4,0.3-0.4c0.5,0,5.2,0,5.9,0.1
		c2.3,0.3,2.8,0.8,3.1,1.5c0.2,0.5,0.3,1.3,0.3,1.6c0,0.3,0.1,0.6,0.3,0.6c0.2,0,0.3-0.3,0.3-0.5c0.1-0.5,0.2-2.4,0.2-2.9
		c0.1-1.2,0.3-1.7,0.3-2c0-0.2,0-0.4-0.2-0.4c-0.2,0-0.4,0.2-0.6,0.2c-0.3,0.1-1,0.2-1.9,0.2c-1,0-9.6,0-9.9,0
		c-0.2,0-2.9-0.1-4.9-0.1c-0.5,0-0.7,0.1-0.7,0.3c0,0.2,0.2,0.3,0.4,0.3c0.4,0,1.1,0,1.5,0.1c1.4,0.3,1.8,1,1.9,2.5
		C238.4,306.5,238.4,307.7,238.4,314.4 M199.1,322.1v-7.7c0-6.7,0-8,0.1-9.3c0.1-1.5,0.4-2.2,1.7-2.5c0.5-0.1,1.1-0.1,1.4-0.1
		c0.2,0,0.3-0.1,0.3-0.3c0-0.3-0.2-0.3-0.7-0.3c-1.3,0-4.5,0.1-4.7,0.1c-0.2,0-2.9-0.1-4.9-0.1c-0.5,0-0.7,0.1-0.7,0.3
		c0,0.2,0.2,0.3,0.3,0.3c0.4,0,1.1,0,1.5,0.1c1.4,0.3,1.8,1,1.9,2.5c0.1,1.4,0.1,2.6,0.1,9.3v7.6c0,4.1,0,7.6-0.2,9.4
		c-0.2,1.2-0.4,2.2-1.3,2.4c-0.4,0.1-0.9,0.2-1.3,0.2c-0.3,0-0.3,0.1-0.3,0.3c0,0.3,0.2,0.4,0.7,0.4c1.3,0,3.9-0.1,4.2-0.1
		c2.5,0,5.4,0.3,11.6,0.3c2.3,0,2.4-0.2,2.7-1.2c0.4-1.3,0.7-3.9,0.7-4.3c0-0.5,0-0.7-0.3-0.7c-0.3,0-0.3,0.2-0.4,0.6
		c-0.1,0.8-0.6,1.9-1.1,2.6c-1,1.2-2.9,1.3-5.2,1.3c-3.4,0-4.5-0.3-5.2-1C199.3,331.2,199.1,328.5,199.1,322.1 M158.6,320.3
		c0.2,0,0.2-0.1,0.2-0.3l-4.1-11.7c-0.2-0.6-0.4-0.6-0.7,0l-3.8,11.7c-0.1,0.2,0,0.3,0.1,0.3H158.6z M154.1,302.9
		c0.5-1.4,0.7-1.7,1-1.7c0.3,0,0.4,0.2,1,1.6c0.6,1.6,7.5,19.5,10.1,26.1c1.6,3.9,2.8,4.5,3.7,4.8c0.6,0.2,1.3,0.3,1.7,0.3
		c0.3,0,0.4,0,0.4,0.3c0,0.3-0.4,0.4-0.9,0.4c-0.6,0-3.8,0-6.8-0.1c-0.8,0-1.3,0-1.3-0.3c0-0.2,0.1-0.3,0.3-0.3
		c0.3-0.1,0.5-0.5,0.3-1.2l-4-10.6c-0.1-0.2-0.2-0.3-0.4-0.3h-9.3c-0.2,0-0.3,0.1-0.4,0.3l-2.6,7.7c-0.4,1.1-0.6,2.1-0.6,2.9
		c0,0.9,0.9,1.3,1.6,1.3h0.4c0.3,0,0.4,0.1,0.4,0.3c0,0.3-0.3,0.4-0.6,0.4c-1,0-2.9-0.1-3.4-0.1c-0.5,0-2.9,0.1-4.9,0.1
		c-0.6,0-0.8-0.1-0.8-0.4c0-0.2,0.2-0.3,0.4-0.3c0.3,0,0.9-0.1,1.3-0.1c2-0.3,2.9-1.9,3.6-4.1L154.1,302.9z"/>
	<path class="st0" d="M142,369.6h4.5c1.5,0,2.4-0.8,2.4-2.3c0-1.4-0.9-2.2-2.4-2.2H142V369.6z M142,363.3h4.2c1.2,0,2.1-0.7,2.1-2
		c0-1.5-0.8-2-2.1-2H142V363.3z M139.5,357.2h7.1c2.6,0,4.3,1.2,4.3,3.6c0,1.5-0.8,2.5-2.1,3.1v0c1.8,0.4,2.7,1.8,2.7,3.7
		c0,2.3-1.6,4-5.3,4h-6.7V357.2z"/>
	<path class="st0" d="M163.7,371.6h-2.3v-1.5h0c-0.6,1-1.8,1.7-3,1.7c-2.7,0-3.9-1.4-3.9-4.1v-6.6h2.3v6.4c0,1.8,0.8,2.5,2,2.5
		c1.9,0,2.6-1.2,2.6-2.8v-6.1h2.3V371.6z"/>
</g>
<path class="st0" d="M167.3,371.6h2.3v-10.4h-2.3V371.6z M167.3,359.4h2.3v-2.2h-2.3V359.4z"/>
<rect x="173.2" y="357.2" class="st0" width="2.3" height="14.4"/>
<g>
	<path class="st0" d="M183.8,370.1c2.1,0,2.9-1.9,2.9-3.7c0-2.3-1.1-3.7-2.9-3.7c-2.2,0-3,1.9-3,3.8
		C180.8,368.3,181.7,370.1,183.8,370.1 M188.9,371.6h-2.2v-1.4h0c-0.6,1.2-1.9,1.7-3.3,1.7c-3.3,0-4.9-2.4-4.9-5.6
		c0-3.8,2.3-5.4,4.6-5.4c1.3,0,2.8,0.5,3.5,1.6h0v-5.3h2.3V371.6z"/>
</g>
<path class="st0" d="M192.5,371.6h2.3v-10.4h-2.3V371.6z M192.5,359.4h2.3v-2.2h-2.3V359.4z"/>
<g>
	<path class="st0" d="M198.4,361.2h2.2v1.5l0,0c0.7-1.2,1.9-1.9,3.3-1.9c2.3,0,3.7,1.2,3.7,3.6v7.2h-2.3v-6.6c0-1.6-0.7-2.3-2.1-2.3
		c-1.5,0-2.5,1.2-2.5,2.7v6.2h-2.3V361.2z"/>
	<path class="st0" d="M218.5,366.2c0-1.8-0.8-3.5-2.8-3.5c-2.1,0-2.8,1.9-2.8,3.6c0,1.7,0.8,3.5,2.8,3.5
		C217.7,369.8,218.5,368,218.5,366.2 M220.8,371.1c0,3.1-1.9,4.7-5.2,4.7c-2.1,0-4.5-0.8-4.7-3.3h2.3c0.3,1.3,1.3,1.5,2.5,1.5
		c1.9,0,2.7-0.9,2.7-2.7v-1.6h0c-0.6,1.2-1.9,1.8-3.2,1.8c-3.3,0-4.7-2.5-4.7-5.5c0-2.8,1.8-5.2,4.8-5.2c1.3,0,2.5,0.5,3.1,1.7h0
		v-1.4h2.3V371.1z"/>
	<path class="st0" d="M227.5,361.2h1.7v-3.1h2.3v3.1h2.1v1.7h-2.1v5.6c0,0.9,0.1,1.4,1.1,1.4c0.3,0,0.7,0,1-0.1v1.8
		c-0.5,0-1,0.1-1.5,0.1c-2.4,0-2.9-0.9-2.9-2.7v-6.2h-1.7V361.2z"/>
	<path class="st0" d="M236.3,357.2h2.3v5.3h0c0.6-0.9,1.8-1.7,3.2-1.7c2.3,0,3.7,1.2,3.7,3.6v7.2h-2.3v-6.6c0-1.6-0.7-2.3-2.1-2.3
		c-1.5,0-2.5,1.2-2.5,2.7v6.2h-2.3V357.2z"/>
	<path class="st0" d="M256.2,365.5c-0.1-1.5-1.1-2.8-2.6-2.8c-1.6,0-2.7,1.2-2.8,2.8H256.2z M250.8,367c0,1.6,0.9,3.1,2.8,3.1
		c1.3,0,2.2-0.6,2.6-1.7h2.2c-0.5,2.3-2.5,3.6-4.8,3.6c-3.3,0-5.1-2.3-5.1-5.5c0-3,2-5.5,5.1-5.5c3.3,0,5.3,3,5,6.1H250.8z"/>
</g>
<polygon class="st0" points="266,357.2 276,357.2 276,359.4 268.5,359.4 268.5,363.2 275.1,363.2 275.1,365.2 268.5,365.2 
	268.5,371.6 266,371.6 "/>
<g>
	<path class="st0" d="M288,371.6h-2.3v-1.5h0c-0.6,1-1.8,1.7-3,1.7c-2.7,0-3.9-1.4-3.9-4.1v-6.6h2.3v6.4c0,1.8,0.8,2.5,2,2.5
		c1.9,0,2.6-1.2,2.6-2.8v-6.1h2.3V371.6z"/>
	<path class="st0" d="M290.4,361.2h1.7v-3.1h2.3v3.1h2.1v1.7h-2.1v5.6c0,0.9,0.1,1.4,1.1,1.4c0.3,0,0.7,0,1-0.1v1.8
		c-0.5,0-1,0.1-1.5,0.1c-2.4,0-2.9-0.9-2.9-2.7v-6.2h-1.7V361.2z"/>
	<path class="st0" d="M308.5,371.6h-2.3v-1.5h0c-0.6,1-1.8,1.7-3,1.7c-2.7,0-3.9-1.4-3.9-4.1v-6.6h2.3v6.4c0,1.8,0.8,2.5,2,2.5
		c1.9,0,2.6-1.2,2.6-2.8v-6.1h2.3V371.6z"/>
	<path class="st0" d="M311.9,361.2h2.2v2h0c0.3-1.1,1.6-2.3,3.1-2.3c0.5,0,0.7,0,0.9,0.1v2.2c-0.3,0-0.7-0.1-1-0.1
		c-1.6,0-2.8,1.3-2.8,3.6v5h-2.3V361.2z"/>
	<path class="st0" d="M327,365.5c-0.1-1.5-1.1-2.8-2.6-2.8c-1.6,0-2.7,1.2-2.8,2.8H327z M321.5,367c0,1.6,0.9,3.1,2.8,3.1
		c1.3,0,2.2-0.6,2.6-1.7h2.2c-0.5,2.3-2.5,3.6-4.8,3.6c-3.3,0-5.1-2.3-5.1-5.5c0-3,2-5.5,5.1-5.5c3.3,0,5.3,3,5,6.1H321.5z"/>
	<path class="st0" d="M344.2,366.4c0-1.8-0.9-3.7-3-3.7c-2.1,0-3,1.9-3,3.7c0,1.8,0.9,3.7,3,3.7
		C343.3,370.1,344.2,368.2,344.2,366.4 M335.9,366.4c0-3.2,1.9-5.5,5.3-5.5c3.4,0,5.3,2.3,5.3,5.5c0,3.2-1.9,5.5-5.3,5.5
		C337.8,371.9,335.9,369.6,335.9,366.4"/>
	<path class="st0" d="M348.4,361.2h1.7v-0.9c0-2.7,1.4-3.1,2.9-3.1c0.7,0,1.3,0,1.6,0.1v1.8c-0.3-0.1-0.6-0.1-1.1-0.1
		c-0.6,0-1.1,0.2-1.1,1.1v1.1h2v1.7h-2v8.7h-2.3v-8.7h-1.7V361.2z"/>
</g>
<polygon class="st0" points="361.6,357.2 364.1,357.2 364.1,369.5 371.5,369.5 371.5,371.6 361.6,371.6 "/>
<path class="st0" d="M374,371.6h2.3v-10.4H374V371.6z M374,359.4h2.3v-2.2H374V359.4z"/>
<g>
	<path class="st0" d="M378.8,361.2h1.7v-0.9c0-2.7,1.4-3.1,2.9-3.1c0.7,0,1.3,0,1.6,0.1v1.8c-0.3-0.1-0.6-0.1-1.1-0.1
		c-0.6,0-1.1,0.2-1.1,1.1v1.1h2v1.7h-2v8.7h-2.3v-8.7h-1.7V361.2z"/>
	<path class="st0" d="M394.5,365.5c-0.1-1.5-1.1-2.8-2.6-2.8c-1.6,0-2.7,1.2-2.8,2.8H394.5z M389.1,367c0,1.6,0.9,3.1,2.8,3.1
		c1.3,0,2.2-0.6,2.6-1.7h2.2c-0.5,2.3-2.5,3.6-4.8,3.6c-3.3,0-5.1-2.3-5.1-5.5c0-3,2-5.5,5.1-5.5c3.3,0,5.3,3,5,6.1H389.1z"/>
</g>
<rect x="399.4" y="365.1" class="st0" width="5.9" height="2.2"/>
<g>
	<path class="st0" d="M418.7,361.8c-0.4-1.7-1.5-2.9-3.6-2.9c-3.1,0-4.4,2.7-4.4,5.5c0,2.8,1.3,5.5,4.4,5.5c2.3,0,3.5-1.7,3.7-3.8
		h2.5c-0.2,3.5-2.7,5.8-6.2,5.8c-4.4,0-7-3.4-7-7.5c0-4.1,2.6-7.5,7-7.5c3.3,0,5.9,1.8,6.2,4.9H418.7z"/>
	<path class="st0" d="M424.2,357.2h2.3v5.3h0c0.6-0.9,1.8-1.7,3.2-1.7c2.3,0,3.7,1.2,3.7,3.6v7.2h-2.3v-6.6c0-1.6-0.7-2.3-2.1-2.3
		c-1.5,0-2.5,1.2-2.5,2.7v6.2h-2.3V357.2z"/>
	<path class="st0" d="M443.4,366.4c-0.7,0.5-1.8,0.4-2.8,0.6c-1,0.2-1.9,0.5-1.9,1.7c0,1,1.3,1.3,2.1,1.3c1,0,2.6-0.5,2.6-2V366.4z
		 M445.7,369.3c0,0.6,0.1,0.8,0.5,0.8c0.1,0,0.3,0,0.6,0v1.6c-0.3,0.1-1.1,0.3-1.5,0.3c-0.9,0-1.6-0.3-1.8-1.3
		c-0.9,0.9-2.4,1.3-3.6,1.3c-1.9,0-3.6-1-3.6-3c0-2.6,2.1-3,4.1-3.3c1.7-0.3,3.2-0.1,3.2-1.5c0-1.2-1.2-1.4-2.2-1.4
		c-1.3,0-2.2,0.5-2.3,1.7h-2.3c0.2-2.7,2.5-3.5,4.8-3.5c2.1,0,4.2,0.8,4.2,3V369.3z"/>
	<path class="st0" d="M449.3,361.2h2.2v1.5l0,0c0.7-1.2,1.9-1.9,3.3-1.9c2.3,0,3.7,1.2,3.7,3.6v7.2h-2.3v-6.6c0-1.6-0.7-2.3-2.1-2.3
		c-1.5,0-2.5,1.2-2.5,2.7v6.2h-2.3V361.2z"/>
	<path class="st0" d="M469.4,366.2c0-1.8-0.8-3.5-2.8-3.5c-2.1,0-2.8,1.9-2.8,3.6c0,1.7,0.8,3.5,2.8,3.5
		C468.6,369.8,469.4,368,469.4,366.2 M471.7,371.1c0,3.1-1.9,4.7-5.2,4.7c-2.1,0-4.5-0.8-4.7-3.3h2.3c0.3,1.3,1.3,1.5,2.5,1.5
		c1.9,0,2.7-0.9,2.7-2.7v-1.6h0c-0.7,1.2-1.9,1.8-3.2,1.8c-3.3,0-4.7-2.5-4.7-5.5c0-2.8,1.8-5.2,4.8-5.2c1.3,0,2.5,0.5,3.1,1.7h0
		v-1.4h2.3V371.1z"/>
</g>
<path class="st0" d="M475.1,371.6h2.3v-10.4h-2.3V371.6z M475.1,359.4h2.3v-2.2h-2.3V359.4z"/>
<g>
	<path class="st0" d="M481,361.2h2.2v1.5l0,0c0.7-1.2,1.9-1.9,3.3-1.9c2.3,0,3.7,1.2,3.7,3.6v7.2h-2.3v-6.6c0-1.6-0.7-2.3-2.1-2.3
		c-1.5,0-2.5,1.2-2.5,2.7v6.2H481V361.2z"/>
	<path class="st0" d="M501.1,366.2c0-1.8-0.8-3.5-2.8-3.5c-2.1,0-2.8,1.9-2.8,3.6c0,1.7,0.8,3.5,2.8,3.5
		C500.3,369.8,501.1,368,501.1,366.2 M503.4,371.1c0,3.1-1.9,4.7-5.2,4.7c-2.1,0-4.5-0.8-4.7-3.3h2.3c0.3,1.3,1.3,1.5,2.5,1.5
		c1.9,0,2.7-0.9,2.7-2.7v-1.6h0c-0.7,1.2-1.9,1.8-3.2,1.8c-3.3,0-4.7-2.5-4.7-5.5c0-2.8,1.8-5.2,4.8-5.2c1.3,0,2.5,0.5,3.1,1.7h0
		v-1.4h2.3V371.1z"/>
</g>
<rect x="511.4" y="357.2" class="st0" width="2.5" height="14.4"/>
<g>
	<path class="st0" d="M517.7,361.2h2.2v1.5l0,0c0.7-1.2,1.9-1.9,3.3-1.9c2.3,0,3.7,1.2,3.7,3.6v7.2h-2.3v-6.6c0-1.6-0.7-2.3-2.1-2.3
		c-1.5,0-2.5,1.2-2.5,2.7v6.2h-2.3V361.2z"/>
	<path class="st0" d="M530.4,361.2h2.2v1.5l0,0c0.7-1.2,1.9-1.9,3.3-1.9c2.3,0,3.7,1.2,3.7,3.6v7.2h-2.3v-6.6c0-1.6-0.7-2.3-2.1-2.3
		c-1.5,0-2.5,1.2-2.5,2.7v6.2h-2.3V361.2z"/>
	<path class="st0" d="M550.9,366.4c0-1.8-0.9-3.7-3-3.7c-2.1,0-3,1.9-3,3.7c0,1.8,0.9,3.7,3,3.7C550,370.1,550.9,368.2,550.9,366.4
		 M542.6,366.4c0-3.2,1.9-5.5,5.3-5.5c3.4,0,5.3,2.3,5.3,5.5c0,3.2-1.9,5.5-5.3,5.5C544.6,371.9,542.6,369.6,542.6,366.4"/>
</g>
<polygon class="st0" points="555.2,361.2 557.7,361.2 560.4,369.2 560.4,369.2 563,361.2 565.4,361.2 561.6,371.6 559,371.6 "/>
<g>
	<path class="st0" d="M574.3,366.4c-0.7,0.5-1.8,0.4-2.9,0.6c-1,0.2-1.9,0.5-1.9,1.7c0,1,1.3,1.3,2.1,1.3c1,0,2.6-0.5,2.6-2V366.4z
		 M576.6,369.3c0,0.6,0.1,0.8,0.6,0.8c0.1,0,0.3,0,0.6,0v1.6c-0.3,0.1-1.1,0.3-1.5,0.3c-0.9,0-1.6-0.3-1.8-1.3
		c-0.9,0.9-2.4,1.3-3.6,1.3c-1.9,0-3.6-1-3.6-3c0-2.6,2.1-3,4-3.3c1.7-0.3,3.2-0.1,3.2-1.5c0-1.2-1.2-1.4-2.2-1.4
		c-1.3,0-2.2,0.5-2.3,1.7h-2.3c0.2-2.7,2.5-3.5,4.8-3.5c2.1,0,4.2,0.8,4.2,3V369.3z"/>
	<path class="st0" d="M579.1,361.2h1.8v-3.1h2.3v3.1h2.1v1.7h-2.1v5.6c0,0.9,0.1,1.4,1.1,1.4c0.3,0,0.7,0,1-0.1v1.8
		c-0.5,0-1,0.1-1.5,0.1c-2.4,0-2.9-0.9-2.9-2.7v-6.2h-1.8V361.2z"/>
</g>
<path class="st0" d="M588,371.6h2.3v-10.4H588V371.6z M588,359.4h2.3v-2.2H588V359.4z"/>
<g>
	<path class="st0" d="M601.6,366.4c0-1.8-0.9-3.7-3-3.7c-2.1,0-3,1.9-3,3.7c0,1.8,0.9,3.7,3,3.7
		C600.7,370.1,601.6,368.2,601.6,366.4 M593.3,366.4c0-3.2,1.9-5.5,5.3-5.5c3.4,0,5.3,2.3,5.3,5.5c0,3.2-1.9,5.5-5.3,5.5
		C595.3,371.9,593.3,369.6,593.3,366.4"/>
	<path class="st0" d="M606.9,361.2h2.2v1.5l0,0c0.7-1.2,1.9-1.9,3.3-1.9c2.3,0,3.7,1.2,3.7,3.6v7.2h-2.3v-6.6c0-1.6-0.7-2.3-2.1-2.3
		c-1.5,0-2.5,1.2-2.5,2.7v6.2h-2.3V361.2z"/>
</g>
<path class="st0" d="M619.3,362.4v-4.3h1.5v-0.9h-4.1v0.9h1.5v4.3H619.3z M622.5,362.4v-3.6l1.2,3.6h0.9l1.2-3.7v3.7h1v-5.2h-1.4
	l-1.2,3.8l-1.2-3.8h-1.4v5.2H622.5z"/>
</svg>
